<svg xmlns="http://www.w3.org/2000/svg" width="266.845" height="189.576" viewBox="0 0 266.845 189.576">
  <g id="Group_2" data-name="Group 2" transform="translate(-576.749 -91.988)">
    <g id="Group_1" data-name="Group 1" transform="translate(576.749 234.249)">
      <path id="Path_1" data-name="Path 1" d="M597.729,128.869h-18.1a2.886,2.886,0,0,1-2.884-2.884v-6.3a2.882,2.882,0,0,1,2.884-2.884h55.7a2.882,2.882,0,0,1,2.884,2.884v6.3a2.886,2.886,0,0,1-2.884,2.884H617.447a2.881,2.881,0,0,0-2.884,2.878v29.489a2.881,2.881,0,0,1-2.884,2.878h-8.187a2.88,2.88,0,0,1-2.879-2.878V131.747A2.882,2.882,0,0,0,597.729,128.869Z" transform="translate(-576.749 -116.799)" fill="#3f320a"/>
      <path id="Path_2" data-name="Path 2" d="M599.038,161.356a19.179,19.179,0,0,1-8.291-8.09,26.886,26.886,0,0,1-2.9-13.01,25.825,25.825,0,0,1,2.9-12.74,19.384,19.384,0,0,1,8.291-7.953,27.75,27.75,0,0,1,12.8-2.764h17.792a27.967,27.967,0,0,1,12.878,2.764,19.412,19.412,0,0,1,8.285,7.987,26.009,26.009,0,0,1,2.9,12.775,26.777,26.777,0,0,1-2.9,12.907,19.238,19.238,0,0,1-8.257,8.125,27.878,27.878,0,0,1-12.907,2.758H611.842A27.751,27.751,0,0,1,599.038,161.356ZM635.4,150.605a8.175,8.175,0,0,0,3.876-3.813,14.226,14.226,0,0,0,1.284-6.4,13.721,13.721,0,0,0-1.319-6.37,8.243,8.243,0,0,0-3.842-3.744,14.51,14.51,0,0,0-6.3-1.21H612.381a14.763,14.763,0,0,0-6.336,1.21,8.236,8.236,0,0,0-3.876,3.744,15.986,15.986,0,0,0,.034,12.769,8.6,8.6,0,0,0,3.876,3.813,14.184,14.184,0,0,0,6.3,1.244h16.714A14.441,14.441,0,0,0,635.4,150.605Z" transform="translate(-524.218 -116.799)" fill="#3f320a"/>
      <path id="Path_3" data-name="Path 3" d="M600.436,119.683a2.883,2.883,0,0,1,2.884-2.884h42.745q7.345,0,11.089,3.607t3.738,10.212a14.288,14.288,0,0,1-1.886,7.718A9.608,9.608,0,0,1,658,139.671a2.868,2.868,0,0,0,.241,4.071,5.326,5.326,0,0,1,.6.591,7.146,7.146,0,0,1,1.651,4.822v12.081a2.881,2.881,0,0,1-2.884,2.878H650.1a2.881,2.881,0,0,1-2.884-2.878v-9.249a4.422,4.422,0,0,0-.843-2.9,3.746,3.746,0,0,0-3-1.009H616.663a2.881,2.881,0,0,0-2.884,2.878v10.281a2.88,2.88,0,0,1-2.878,2.878h-7.58a2.882,2.882,0,0,1-2.884-2.878ZM646.5,135.3a3.942,3.942,0,0,0,.912-2.8,3.75,3.75,0,0,0-.94-2.8,4.185,4.185,0,0,0-2.97-.906h-26.84a2.883,2.883,0,0,0-2.884,2.884V133.4a2.883,2.883,0,0,0,2.884,2.884h26.909A3.826,3.826,0,0,0,646.5,135.3Z" transform="translate(-464.62 -116.799)" fill="#3f320a"/>
      <path id="Path_4" data-name="Path 4" d="M622.99,161.356a19.241,19.241,0,0,1-8.291-8.09,26.887,26.887,0,0,1-2.9-13.01,25.825,25.825,0,0,1,2.9-12.74,19.448,19.448,0,0,1,8.291-7.953A27.787,27.787,0,0,1,635.8,116.8h17.792a27.928,27.928,0,0,1,12.872,2.764,19.392,19.392,0,0,1,8.291,7.987,26.006,26.006,0,0,1,2.9,12.775,26.774,26.774,0,0,1-2.9,12.907,19.234,19.234,0,0,1-8.257,8.125,27.877,27.877,0,0,1-12.906,2.758H635.8A27.788,27.788,0,0,1,622.99,161.356Zm36.364-10.751a8.176,8.176,0,0,0,3.876-3.813,14.225,14.225,0,0,0,1.279-6.4,13.718,13.718,0,0,0-1.313-6.37,8.268,8.268,0,0,0-3.842-3.744,14.53,14.53,0,0,0-6.3-1.21H636.338a14.745,14.745,0,0,0-6.336,1.21,8.235,8.235,0,0,0-3.876,3.744,15.986,15.986,0,0,0,.034,12.769,8.571,8.571,0,0,0,3.876,3.813,14.185,14.185,0,0,0,6.3,1.244h16.714A14.461,14.461,0,0,0,659.354,150.605Z" transform="translate(-410.811 -116.799)" fill="#3f320a"/>
    </g>
    <rect id="Rectangle_1" data-name="Rectangle 1" width="266.841" height="7.056" rx="0.532" transform="translate(576.751 221.034)" fill="#3f320a"/>
    <path id="Path_5" data-name="Path 5" d="M748.964,193.47l-15.59-34.919h-.012a4.219,4.219,0,0,0-1.852-1.892,3.3,3.3,0,0,0-.694-.235l-51.323-12.293a3.74,3.74,0,0,0-.786-.229l-29.391-5.556a4.192,4.192,0,0,1-3.417-4.123V127.44a4.192,4.192,0,0,0-1-2.724l-.373-.436a4.2,4.2,0,0,1,3.194-6.921h14.764a4.2,4.2,0,0,0,4.2-4.2V96.185a4.2,4.2,0,0,0-4.2-4.2h-1.124a4.2,4.2,0,0,0-4.2,4.2v7.958a4.2,4.2,0,0,1-4.2,4.2H598.5a4.2,4.2,0,0,1-4.2-4.2V96.185a4.2,4.2,0,0,0-4.2-4.2H588.98a4.2,4.2,0,0,0-4.2,4.2v16.978a4.2,4.2,0,0,0,4.2,4.2h16.966a4.2,4.2,0,0,1,3.36,6.714,4.2,4.2,0,0,0-.683,3.658l8.7,30.951a4.172,4.172,0,0,1,.063,2.007l-11.743,55.274a4.2,4.2,0,0,0,4.105,5.069h.854a4.193,4.193,0,0,0,3.509-1.892l17.924-29.065a4.2,4.2,0,0,1,7.208.31l16.536,28.445a4.193,4.193,0,0,0,3.693,2.2h.281a4.2,4.2,0,0,0,4.14-4.9l-4.7-27.9a4.2,4.2,0,0,1,5.321-4.73l26.312,7.723a4.2,4.2,0,0,0,2.408-.017l12.826-3.922a4.191,4.191,0,0,1,5.252,2.821l8.245,27.912a4.2,4.2,0,0,0,4.025,3.01h1.187a4.189,4.189,0,0,0,4.174-3.773l3.573-41.656,13.2,19.661a1.854,1.854,0,0,0,1.542.826h.006A1.858,1.858,0,0,0,748.964,193.47Z" transform="translate(38.002 0)" fill="#3f320a"/>
  </g>
</svg>
